<?xml version="1.0" standalone="no"?>
<!DOCTYPE svg PUBLIC "-//W3C//DTD SVG 20010904//EN"
 "http://www.w3.org/TR/2001/REC-SVG-20010904/DTD/svg10.dtd">
<svg version="1.0" xmlns="http://www.w3.org/2000/svg"
 width="421.000000pt" height="421.000000pt" viewBox="0 0 421.000000 421.000000"
 preserveAspectRatio="xMidYMid meet">
<metadata>
Created by potrace 1.14, written by Peter Selinger 2001-2017
</metadata>
<g transform="translate(0.000000,421.000000) scale(0.100000,-0.100000)"
fill="#000000" stroke="none">
<path d="M1251 3896 c-41 -41 -51 -58 -51 -85 0 -36 -3 -36 -76 -16 -32 10
-124 -89 -124 -132 0 -31 -1 -32 -32 -26 -18 3 -40 9 -49 14 -11 5 -29 -7 -67
-46 -43 -44 -52 -60 -52 -88 l0 -35 -49 13 -49 13 -51 -52 c-41 -41 -51 -58
-51 -85 0 -30 -2 -33 -25 -27 -14 3 -35 8 -47 11 -18 5 -35 -6 -76 -45 l-52
-51 0 -799 0 -798 33 -10 c17 -6 62 -18 99 -27 l67 -18 3 -101 3 -101 95 -26
95 -25 3 -101 3 -100 57 -16 c31 -8 76 -20 100 -27 l42 -11 0 -99 0 -99 58
-16 c31 -9 75 -22 97 -28 l40 -12 3 -100 3 -100 182 -49 c218 -58 321 -86 617
-165 124 -33 261 -69 305 -81 44 -12 218 -59 387 -104 l307 -83 51 52 c39 40
50 58 50 83 0 35 6 37 60 22 33 -10 36 -8 87 42 43 43 53 59 53 86 0 33 1 33
33 27 17 -4 38 -11 45 -15 9 -4 33 12 68 46 45 44 54 60 54 88 l0 34 49 -13
49 -13 51 52 51 52 0 300 0 300 -97 25 -98 25 -3 102 c-2 85 -5 102 -20 105
-9 3 -54 15 -99 28 l-82 23 -3 100 -3 100 -95 25 -95 26 -3 101 -3 101 -217
58 c-250 66 -368 98 -722 194 l-255 68 -52 -50 -53 -51 0 -133 c0 -145 2 -141
-62 -122 l-38 10 0 235 0 234 28 -6 c15 -3 47 -12 72 -19 25 -7 106 -29 180
-49 74 -20 277 -74 450 -120 173 -47 416 -112 540 -145 l225 -60 53 52 c42 42
52 58 52 85 0 33 1 33 33 27 17 -4 38 -11 46 -15 9 -5 31 10 67 48 l54 55 0
398 0 398 -42 11 c-24 7 -69 19 -100 27 l-58 16 0 102 c0 74 -3 102 -12 102
-11 1 -175 44 -388 103 -36 10 -150 41 -255 69 -607 161 -1322 352 -1331 356
-6 2 -34 -20 -63 -49z"/>
</g>
</svg>
